<svg width="26" height="26" viewBox="0 0 26 26" fill="none" xmlns="http://www.w3.org/2000/svg">
<path d="M8.5949 25.3158C6.20762 25.3158 5.01524 25.3158 4.27349 24.574C3.53174 23.8323 3.53174 22.6399 3.53174 20.2526L3.53174 5.06316C3.53174 2.67588 3.53174 1.48351 4.27349 0.741756C5.01524 3.75966e-06 6.20762 3.71542e-06 8.5949 3.62684e-06C9.19108 3.60472e-06 9.48981 3.59364e-06 9.67588 0.184809C9.86069 0.37088 9.86069 0.670871 9.86069 1.26579L9.86069 24.05C9.86069 24.6462 9.86069 24.9449 9.67588 25.131C9.48981 25.3158 9.18982 25.3158 8.5949 25.3158Z" fill="#166A46"/>
<path fill-rule="evenodd" clip-rule="evenodd" d="M24.3085 24.574C23.5667 25.3158 22.3744 25.3158 19.9871 25.3158L13.6581 25.3158C13.0619 25.3158 12.7632 25.3158 12.5771 25.131C12.3923 24.9449 12.3923 24.6449 12.3923 24.05L12.3923 1.26579C12.3923 0.669605 12.3923 0.37088 12.5771 0.184809C12.7632 3.80094e-06 13.0619 3.78985e-06 13.6581 3.76773e-06L19.9871 3.53291e-06C22.3744 3.44434e-06 23.5667 3.4001e-06 24.3085 0.741756C25.0502 1.48351 25.0502 2.67588 25.0502 5.06316L25.0502 20.2526C25.0502 22.6399 25.0502 23.8323 24.3085 24.574ZM17.4555 17.7211C17.4555 18.0568 17.5889 18.3787 17.8262 18.6161C18.0636 18.8535 18.3856 18.9868 18.7213 18.9868C19.057 18.9868 19.3789 18.8535 19.6163 18.6161C19.8537 18.3787 19.9871 18.0568 19.9871 17.7211L19.9871 7.59474C19.9871 7.25903 19.8537 6.93707 19.6163 6.69969C19.3789 6.46231 19.057 6.32895 18.7213 6.32895C18.3856 6.32895 18.0636 6.46231 17.8262 6.69969C17.5889 6.93707 17.4555 7.25903 17.4555 7.59474L17.4555 17.7211Z" fill="#166A46"/>
<path d="M1 18.9868L4.79737 18.9868L1 18.9868ZM0.999999 6.32892L4.79737 6.32892L0.999999 6.32892Z" fill="#166A46"/>
<path d="M1 18.9868L4.79737 18.9868M0.999999 6.32892L4.79737 6.32892" stroke="#166A46" stroke-width="2" stroke-linecap="round"/>
</svg>
