<svg width="45" height="45" viewBox="0 0 45 45" fill="none" xmlns="http://www.w3.org/2000/svg">
<path d="M36.0076 26.869C36.4642 25.46 36.696 23.9906 36.696 22.4936C36.696 21.0002 36.4656 19.5351 36.0112 18.1296C38.7663 17.0898 40.6955 14.3885 40.6062 11.284C40.4949 7.37217 37.2186 4.28394 33.307 4.39309C30.3455 4.47815 27.8548 6.37418 26.8664 8.98681C25.4597 8.53247 23.9942 8.30211 22.5004 8.30211C21.0065 8.30211 19.541 8.53247 18.1343 8.98681C17.1204 6.3033 14.5248 4.39026 11.4902 4.39026C7.57509 4.39026 4.39024 7.57417 4.39024 11.4874C4.39024 14.5211 6.30385 17.1153 8.98814 18.1289C8.53367 19.5344 8.30324 20.9995 8.30324 22.4929C8.30324 23.9906 8.53509 25.46 8.99168 26.8683C6.30597 27.8819 4.39024 30.4775 4.39024 33.5126C4.39024 37.4259 7.57509 40.6098 11.4902 40.6098C14.5297 40.6098 17.1282 38.6911 18.1393 36.0019C19.5438 36.4548 21.0079 36.6852 22.5004 36.6852C23.9928 36.6852 25.4569 36.4555 26.8614 36.0019C27.1862 36.8687 27.6796 37.6718 28.327 38.3629C28.5269 38.5762 28.863 38.5876 29.0771 38.387C29.2912 38.1871 29.3018 37.8511 29.1019 37.6371C28.0504 36.5151 27.4719 35.05 27.4719 33.5119C27.4719 30.1834 30.1803 27.4758 33.5105 27.4758C36.8407 27.4758 39.5491 30.1834 39.5491 33.5119C39.5491 36.8404 36.8407 39.548 33.5105 39.548C32.6327 39.548 31.7869 39.3644 30.9964 39.0015C30.7298 38.8789 30.415 38.9966 30.2923 39.2623C30.1704 39.5281 30.2874 39.8436 30.5532 39.9655C31.4834 40.3922 32.4782 40.6084 33.5098 40.6084C37.4249 40.6084 40.6098 37.4244 40.6098 33.5112C40.6098 30.4775 38.694 27.8819 36.0076 26.869ZM33.3375 5.45416C33.3963 5.45275 33.4545 5.45133 33.5126 5.45133C36.7627 5.45133 39.4527 8.04623 39.5462 11.3145C39.642 14.6416 37.0116 17.4257 33.6835 17.5207C30.359 17.6157 27.5697 14.9868 27.4747 11.6597C27.379 8.33329 30.0094 5.54914 33.3375 5.45416ZM11.4902 39.5487C8.16073 39.5487 5.45162 36.8411 5.45162 33.5126C5.45162 30.1841 8.16073 27.4765 11.4902 27.4765C14.8197 27.4765 17.5288 30.1841 17.5288 33.5126C17.5281 36.8411 14.8197 39.5487 11.4902 39.5487ZM26.4105 33.5126C26.4105 34.0116 26.4644 34.5035 26.5651 34.9819C25.257 35.4072 23.8921 35.6234 22.5004 35.6234C21.1093 35.6234 19.7445 35.4072 18.4363 34.9826C18.537 34.5084 18.5902 34.0165 18.5902 33.5126C18.5902 29.5993 15.4053 26.4154 11.4902 26.4154C10.9833 26.4154 10.4884 26.4693 10.0112 26.5706C9.58229 25.2587 9.36533 23.89 9.36533 22.4936C9.36533 21.1023 9.58158 19.7371 10.0077 18.4287C10.4863 18.5308 10.9826 18.5846 11.4909 18.5846C13.3081 18.5846 15.0367 17.8992 16.359 16.6539C16.5724 16.4533 16.5823 16.1173 16.3816 15.904C16.181 15.6906 15.8442 15.6807 15.6315 15.8813C14.507 16.9402 13.0373 17.5236 11.4916 17.5236C8.16215 17.5236 5.45304 14.816 5.45304 11.4874C5.45304 8.15893 8.16215 5.45133 11.4916 5.45133C14.8211 5.45133 17.5302 8.15893 17.5302 11.4874C17.5302 12.2636 17.3849 13.0192 17.0984 13.7329C16.9893 14.0051 17.1211 14.3134 17.3934 14.4226C17.6649 14.5317 17.9741 14.3999 18.0833 14.1277C18.42 13.2878 18.5909 12.3997 18.5909 11.4874C18.5909 10.9792 18.537 10.4831 18.4349 10.0046C19.7437 9.57865 21.1093 9.36247 22.5018 9.36247C23.8943 9.36247 25.2598 9.57865 26.5686 10.0046C26.4531 10.5476 26.3985 11.1118 26.4155 11.6909C26.5254 15.534 29.6882 18.5846 33.5098 18.5846C33.5778 18.5846 33.6466 18.5832 33.7154 18.5818C34.1536 18.569 34.5811 18.5166 34.9951 18.4287C35.4213 19.7371 35.6375 21.1023 35.6375 22.4936C35.6375 23.8893 35.4198 25.2587 34.9916 26.5706C34.5144 26.4693 34.0203 26.4154 33.5133 26.4154C29.5954 26.4154 26.4105 29.5993 26.4105 33.5126Z" fill="#074E31" stroke="#074E31" stroke-width="0.5"/>
<path d="M15.1468 8.87099C14.9742 8.75157 14.7467 8.75293 14.5762 8.87577C14.4056 8.99861 14.223 9.10098 14.031 9.18219C13.3434 8.6335 12.346 8.63964 11.663 9.24566C11.3078 9.56095 11.0864 9.99636 11.0342 10.4666C10.2998 10.3553 9.63554 9.94244 9.20007 9.30981C9.09639 9.15899 8.9218 9.0771 8.74186 9.09484C8.56259 9.11258 8.40606 9.22792 8.33315 9.3958C8.3191 9.42856 7.98197 10.2141 8.02478 11.1756C8.05756 11.9113 8.31576 12.8599 9.25626 13.5915C8.91779 13.7028 8.56058 13.7546 8.20338 13.7403C7.97394 13.7307 7.7639 13.885 7.70169 14.1129C7.63881 14.3408 7.73781 14.5824 7.94049 14.6978C8.72581 15.1427 9.56731 15.3659 10.3901 15.3659C11.1801 15.3659 11.952 15.1605 12.639 14.7476C13.9862 13.9389 14.7588 12.4593 14.7588 10.687C14.7588 10.6604 14.7581 10.6338 14.7568 10.6065C15.0424 10.2632 15.2471 9.85577 15.3521 9.41491C15.4003 9.20676 15.3193 8.99042 15.1468 8.87099ZM13.7414 10.5259C13.7514 10.5799 13.7567 10.6344 13.7567 10.687C13.7567 12.1072 13.1795 13.2366 12.1306 13.8659C11.5252 14.2296 10.8302 14.3838 10.1218 14.332C10.2837 14.2501 10.4409 14.1566 10.5908 14.0528C10.7413 13.9491 10.8249 13.7696 10.8088 13.5847C10.7921 13.3997 10.6797 13.2387 10.5132 13.1629C9.57801 12.7391 9.07833 12.0649 9.02749 11.1593C9.01679 10.9736 9.02615 10.7955 9.04555 10.6324C9.73454 11.2193 10.6148 11.5394 11.5379 11.5155C11.8095 11.508 12.0256 11.2814 12.0256 11.0043V10.6966C12.0256 10.6945 12.0256 10.6918 12.0256 10.6897C12.0222 10.4311 12.1299 10.1861 12.3212 10.0161C12.6791 9.69881 13.223 9.73771 13.534 10.1028C13.5962 10.1758 13.6765 10.2277 13.7634 10.255C13.732 10.3403 13.724 10.4338 13.7414 10.5259Z" fill="#074E31"/>
<path d="M31.3811 11.9156H32.3009V14.87C32.3009 15.1441 32.5913 15.3658 32.9502 15.3658C33.3092 15.3658 33.5996 15.1441 33.5996 14.87V11.9156H34.6018C34.9598 11.9156 35.2511 11.6939 35.2511 11.4198C35.2511 11.1457 34.9607 10.924 34.6018 10.924H33.5996V9.53779C33.5996 9.06182 34.1067 8.67457 34.7301 8.67457H35.5702C35.9282 8.67457 36.2195 8.4528 36.2195 8.17874C36.2195 7.90469 35.9291 7.68292 35.5702 7.68292H34.7301C33.3906 7.68292 32.3009 8.51503 32.3009 9.53713V10.9233H31.3811C31.0221 10.9233 30.7317 11.1451 30.7317 11.4191C30.7317 11.6932 31.0221 11.9156 31.3811 11.9156Z" fill="#074E31"/>
<path d="M13.9517 32.8595L10.8259 30.827C10.6308 30.6999 10.3885 30.6999 10.194 30.827C9.99891 30.9541 9.87805 31.1903 9.87805 31.443V35.5081C9.87805 35.7616 9.99953 35.9978 10.194 36.1242C10.2916 36.1877 10.4008 36.2195 10.51 36.2195C10.6192 36.2195 10.7284 36.1877 10.8259 36.1242L13.9523 34.0916C14.1468 33.9646 14.2683 33.7284 14.2683 33.4756C14.2683 33.2228 14.1462 32.9859 13.9517 32.8595ZM10.7959 34.9487V32.0018L13.0621 33.4756L10.7959 34.9487Z" fill="#074E31"/>
<path d="M35.8318 37.3171C36.6505 37.3171 37.3171 36.6512 37.3171 35.8318V31.1194C37.3171 30.3007 36.6512 29.6342 35.8318 29.6342H31.1187C30.3 29.6342 29.6341 30.3 29.6341 31.1194V35.8318C29.6341 36.6505 30.3 37.3171 31.1187 37.3171H35.8318ZM30.7188 35.8318V31.1194C30.7188 30.8985 30.8984 30.7195 31.1187 30.7195H35.8318C36.0528 30.7195 36.2317 30.8992 36.2317 31.1194V35.8318C36.2317 36.0521 36.052 36.2317 35.8318 36.2317H31.1187C30.8984 36.2325 30.7188 36.0528 30.7188 35.8318Z" fill="#074E31"/>
<path d="M33.4752 35.122C34.3834 35.122 35.122 34.3834 35.122 33.4753C35.122 32.5671 34.3834 31.8293 33.4752 31.8293C32.5671 31.8293 31.8293 32.5679 31.8293 33.4753C31.8293 34.3834 32.5678 35.122 33.4752 35.122ZM33.476 32.9186C33.783 32.9186 34.0334 33.1682 34.0334 33.4753C34.0334 33.7823 33.7838 34.0327 33.476 34.0327C33.1689 34.0327 32.9193 33.7831 32.9193 33.4753C32.9186 33.1682 33.1682 32.9186 33.476 32.9186Z" fill="#074E31"/>
<path d="M24.0395 16.6459C23.8516 16.4635 23.5765 16.4126 23.3389 16.5172C23.1007 16.6218 22.947 16.8613 22.947 17.1262V18.9817C21.2048 19.3134 19.766 20.0704 18.6668 21.2349C17.6816 22.2782 16.9709 23.621 16.4931 25.3394C16.3951 25.6925 16.5454 26.0634 16.8588 26.2417C16.977 26.3091 17.1058 26.3415 17.2333 26.3415C17.4434 26.3415 17.6501 26.2527 17.7997 26.0834C18.2963 25.5232 18.8178 25.0869 19.3949 24.7496C19.6358 24.6086 19.7204 24.294 19.5828 24.047C19.4452 23.7999 19.1385 23.7139 18.8976 23.8543C18.497 24.0883 18.1205 24.3622 17.7615 24.6815C18.7909 21.9032 20.6827 20.3443 23.5194 19.9294C23.7671 19.8929 23.9503 19.6761 23.9503 19.4194V17.9824L27.5312 21.4765L23.9503 24.8425V23.3099C23.9503 23.0256 23.7255 22.7944 23.4476 22.7944C22.5631 22.7944 21.784 22.8701 21.0659 23.0256C20.7941 23.0848 20.621 23.3581 20.6787 23.6361C20.7357 23.9148 21.0028 24.0924 21.274 24.0332C21.786 23.9224 22.3356 23.8563 22.945 23.8336V25.6767C22.945 25.9396 23.0967 26.1777 23.3309 26.2837C23.5657 26.3897 23.8396 26.3429 24.0281 26.1653L28.209 22.2349C28.4144 22.0415 28.5338 21.7669 28.5365 21.4813C28.5392 21.1957 28.4245 20.9183 28.2225 20.7222L24.0395 16.6459Z" fill="#074E31" stroke="#074E31" stroke-width="0.5"/>
</svg>
