<svg width="184" height="52" viewBox="0 0 184 52" fill="none" xmlns="http://www.w3.org/2000/svg">
<path d="M184 27.6054V35.7477C184 36.6406 183.428 37.4352 182.579 37.7173L181.127 38.2013L166.561 20.079L182.602 25.6409C183.438 25.9334 184 26.7202 184 27.6054Z" fill="#4CC4FF"/>
<path d="M166.561 20.079L181.127 38.2013L156.081 46.5559V16.4452L166.561 20.079Z" fill="#2633FF"/>
<path d="M156.081 7.03979L166.561 20.079L156.081 16.4452V7.03979Z" fill="#8142FF"/>
<path d="M156.08 16.4452V46.5558L145.888 43.89L140.264 35.9573V10.9608H140.267L156.08 16.4452Z" fill="#052976"/>
<path d="M156.081 7.03979V16.4452L140.267 10.9609L156.081 7.03979Z" fill="#103576"/>
<path d="M156.081 7.0398L140.267 10.9609L125.202 14.6956L116.873 2.95051C115.995 1.71078 116.881 0 118.4 0H148.93C149.874 0 150.767 0.427047 151.358 1.16209L156.081 7.0398Z" fill="#8142FF"/>
<path d="M156.082 46.5559L149.365 48.7946L145.89 43.8901L156.082 46.5559Z" fill="#2633FF"/>
<path d="M145.888 43.8901L149.364 48.7946L142.726 51.0075C141.514 51.4113 140.264 50.5106 140.264 49.2346V42.42L145.888 43.8901Z" fill="#4CC4FF"/>
<path d="M140.264 35.9573L145.888 43.8901L140.264 42.42V35.9573Z" fill="#0A9D76"/>
<path d="M140.264 35.9573V42.42L126.749 38.8846C125.835 38.6464 125.199 37.8208 125.199 36.8761V14.6956L140.264 35.9573Z" fill="#20CC76"/>
<path d="M140.264 10.9608V35.9573L125.199 14.6982L140.264 10.9608Z" fill="#103576"/>
<path d="M151.764 30.6076C151.816 30.6154 151.868 30.6206 151.919 30.6231L151.073 31.5394L151.029 31.5885C150.946 31.573 150.861 31.5549 150.778 31.5368C150.739 31.529 150.698 31.5212 150.659 31.5109C150.607 31.4979 150.558 31.4876 150.506 31.4746C150.475 31.4669 150.444 31.4591 150.413 31.4514C150.39 31.4462 150.366 31.4384 150.346 31.4332C150.302 31.4203 150.258 31.4099 150.214 31.397C150.149 31.3789 150.084 31.3582 150.02 31.3375C149.978 31.3245 149.937 31.3116 149.895 31.2987C149.732 31.2443 149.572 31.1848 149.411 31.1201C149.375 31.1045 149.336 31.089 149.3 31.0735C149.285 31.0657 149.266 31.0605 149.251 31.0528C149.212 31.0372 149.173 31.0191 149.134 31.001C149.093 30.9829 149.052 30.9648 149.01 30.9441C148.977 30.9285 148.946 30.913 148.912 30.8975C148.878 30.882 148.847 30.8664 148.814 30.8509C148.764 30.825 148.713 30.7991 148.666 30.7733C148.617 30.7474 148.568 30.7189 148.518 30.693C148.682 30.5895 148.839 30.4808 148.992 30.3669C149.109 30.2815 149.233 30.1935 149.362 30.1081C149.419 30.0693 149.476 30.0305 149.536 29.9942C149.582 30.0149 149.629 30.0356 149.678 30.0563C149.763 30.0926 149.851 30.1288 149.939 30.1624C150.002 30.1857 150.064 30.209 150.126 30.2297C150.162 30.2427 150.201 30.2556 150.237 30.2686C150.276 30.2815 150.317 30.2944 150.356 30.3074C150.403 30.3229 150.452 30.3384 150.501 30.3514C150.553 30.3669 150.605 30.3824 150.656 30.3954C150.827 30.442 151.001 30.4808 151.174 30.517C151.205 30.5248 151.236 30.53 151.267 30.5351C151.314 30.5455 151.358 30.5507 151.404 30.5584C151.456 30.5662 151.505 30.574 151.557 30.5817C151.593 30.5869 151.632 30.5921 151.668 30.5973C151.702 30.6024 151.733 30.605 151.764 30.6076ZM148.713 28.8192V28.814V23.0657C149.512 23.8965 150.154 24.8981 150.258 26.0214C150.617 25.7755 150.933 25.4649 151.184 25.1104C150.915 24.1269 150.348 23.2521 149.668 22.5041C150.633 22.7965 151.389 23.3038 151.805 23.6299C151.844 23.4151 151.865 23.1951 151.865 22.9699C151.865 22.7448 151.844 22.5222 151.805 22.3074C151.265 21.9657 150.548 21.6034 149.701 21.3886C150.255 21.0288 150.737 20.77 151.024 20.6225C150.778 20.3223 150.485 20.0634 150.157 19.8538C149.771 20.0634 149.259 20.3637 148.71 20.7467V19.4449V19.3129C148.534 19.287 148.353 19.274 148.169 19.274C147.985 19.274 147.804 19.287 147.628 19.3129V20.7467C147.077 20.3637 146.567 20.0634 146.179 19.8538C145.85 20.0634 145.558 20.3223 145.312 20.6225C145.599 20.77 146.08 21.0288 146.634 21.3886C145.788 21.6034 145.071 21.9657 144.53 22.3074C144.491 22.5222 144.471 22.7422 144.471 22.9699C144.471 23.1951 144.491 23.4151 144.528 23.6299C144.944 23.3038 145.7 22.7939 146.671 22.5015C145.99 23.2495 145.42 24.1243 145.151 25.1104C145.405 25.4649 145.718 25.7755 146.078 26.0214C146.181 24.8981 146.823 23.8965 147.623 23.0657V28.8166V28.8218C146.5 28.0945 144.955 27.3646 143.114 27.2119L143.57 27.89L143.924 28.418C145.229 28.6846 146.337 29.2566 147.17 29.8156C146.316 30.2608 145.387 30.5351 144.416 30.6257L145.263 31.5419L145.307 31.5911C146.319 31.4022 147.284 31.0321 148.164 30.4937C148.374 30.3669 148.575 30.2297 148.775 30.0848C148.894 29.9968 149.023 29.9062 149.158 29.8182C149.989 29.2592 151.096 28.6872 152.401 28.4206L152.755 27.8926L153.211 27.2145C151.381 27.3646 149.836 28.0919 148.713 28.8192Z" fill="url(#paint0_linear_6376_2117)"/>
<path d="M89.2009 20.977L88.2484 20.0246L87.2391 21.034L88.2484 22.0434L89.2009 21.0909L90.1559 22.0434L91.1653 21.034L90.1559 20.0246L89.2009 20.977Z" fill="#052976"/>
<path d="M65.5896 10.9505L66.5447 11.903L67.554 10.8936L66.5447 9.88419L65.5896 10.8366L64.6372 9.88419L63.6278 10.8936L64.6372 11.903L65.5896 10.9505Z" fill="#052976"/>
<path d="M85.7235 11.7037H84.8927C84.4656 11.7037 84.3569 11.4966 84.3569 11.2274C84.3569 10.922 84.5148 10.7797 84.9315 10.7797C85.0894 10.7797 85.2964 10.803 85.5061 10.8418L85.519 10.2414C85.2395 10.2051 84.9574 10.1689 84.7141 10.1689C83.9454 10.1689 83.4951 10.4743 83.4951 11.0954C83.4951 11.3284 83.5572 11.5458 83.7021 11.7063H83.288V12.2912H85.7287V11.7037H85.7235Z" fill="#052976"/>
<path d="M65.5318 18.8366C66.2643 18.8366 66.9708 18.6192 67.6671 18.2517C67.9725 18.5804 68.4124 18.7642 68.9482 18.7642H74.5852H78.0016H83.3824C84.2442 18.7642 84.8602 18.2802 85.1061 17.7781C85.264 18.275 85.7557 18.7642 86.3821 18.7642H87.6399H87.8936H88.9029C89.7648 18.7642 90.3808 18.2802 90.6267 17.7781C90.7845 18.275 91.2763 18.7642 91.9026 18.7642H92.5005H93.4167C94.9178 18.7642 97.8916 18.7642 99.4782 18.7642C99.6179 18.7642 99.7447 18.7642 99.8612 18.7642C100.881 18.7642 101.608 18.3992 102.072 17.7703V17.7781C102.229 18.275 102.721 18.7642 103.347 18.7642H104.028H104.248H104.554C105.7 18.7642 106.629 17.835 106.629 16.6885V9.85312H104.872V16.8334C104.872 17.0922 104.662 17.3019 104.403 17.3019H104.248H104.028H103.448C102.887 17.3019 102.625 16.9524 102.625 16.3805H102.623C102.667 16.1087 102.693 15.8188 102.693 15.5134C102.693 13.4144 101.241 12.2213 99.5455 12.2083C98.3264 12.2083 97.3688 12.858 96.5509 13.6758H96.331C94.9644 13.6758 93.7816 14.385 93.7816 15.8602C93.7816 16.4219 93.968 16.9524 94.4209 17.3044H93.4193H92.5031H91.8198C91.2582 17.3044 90.9968 16.955 90.9968 16.3831V13.0624H89.2394V16.8334C89.2394 17.0922 89.0298 17.3019 88.7709 17.3019H87.8961H87.6425H86.2992C85.7376 17.3019 85.4762 16.9524 85.4762 16.3805V13.0624H83.7188V16.8334C83.7188 17.0922 83.5092 17.3019 83.2504 17.3019H78.0068H69.6729C69.2588 17.3019 69.0025 17.0094 69.0025 16.5823V12.1721H67.2452V12.8192C66.9036 12.7829 66.5852 12.7441 66.2694 12.7441C64.4603 12.7441 63.0239 13.7043 63.0239 15.4047V16.3261C63.0187 17.8247 63.9582 18.8366 65.5318 18.8366ZM99.3332 13.6681C100.174 13.6681 100.933 14.3151 100.933 15.5833C100.933 16.572 100.48 17.3044 99.5403 17.3044H98.9321C98.9709 17.012 98.9812 16.7325 98.9812 16.4529C98.9812 15.4384 98.6525 14.6593 98.0184 14.1831C98.4041 13.901 98.8208 13.6681 99.3332 13.6681ZM96.3672 14.9984C97.1825 14.9984 97.4387 15.692 97.4387 16.4736C97.4387 16.7661 97.4025 17.0223 97.3429 17.3019H96.5018C95.7693 17.3019 95.319 16.8282 95.319 16.1191C95.319 15.4746 95.6969 14.9984 96.3672 14.9984ZM64.7761 15.4979C64.7761 14.6076 65.4542 14.2038 66.3445 14.2038C66.6396 14.2038 66.9217 14.2426 67.24 14.2892V17.056C66.8363 17.2397 66.4429 17.3743 66.0391 17.3743C65.2808 17.3743 64.7735 16.8877 64.7735 16.2511V15.4979H64.7761Z" fill="#052976"/>
<path d="M110.054 9.85312H108.297V18.7642H110.054V9.85312Z" fill="#052976"/>
<path d="M44.1205 34.6037L43.168 33.6513L42.1586 34.6607L43.168 35.67L44.1205 34.7176L45.0755 35.67L46.0849 34.6607L45.0755 33.6513L44.1205 34.6037Z" fill="#052976"/>
<path d="M51.5772 26.6192C49.8095 26.6192 48.7224 27.8279 48.7224 29.5853C48.7224 31.2935 49.7473 32.365 51.4426 32.365H52.7237C52.6487 33.5245 51.7351 33.8816 50.5626 33.8816C50.221 33.8816 49.9156 33.8583 49.5739 33.8221V35.2611C49.988 35.2999 50.353 35.3362 50.7334 35.3232C52.9411 35.2999 54.4914 34.2 54.4914 32.0181V29.7354C54.494 27.8926 53.42 26.6192 51.5772 26.6192ZM52.7367 30.9311H51.5409C50.7723 30.9311 50.4669 30.297 50.4669 29.5413C50.4669 28.7363 50.7956 28.0764 51.5901 28.0764C52.4209 28.0764 52.7367 28.77 52.7367 29.5879V30.9311Z" fill="#052976"/>
<path d="M40.1191 23.5366L39.0851 24.5706L40.1191 25.6046L41.1531 24.5706L40.1191 23.5366Z" fill="#052976"/>
<path d="M33.7977 33.6277L32.7637 34.6617L33.7977 35.6957L34.8317 34.6617L33.7977 33.6277Z" fill="#052976"/>
<path d="M43.419 32.3908H43.8357C44.9823 32.3908 45.9114 31.4617 45.9114 30.3151V26.6865H44.1541V30.4575C44.1541 30.7163 43.9444 30.9259 43.6856 30.9259H43.419H42.5572H41.8221C41.2605 30.9259 40.9991 30.5765 40.9991 30.0046V26.6839H39.2417V30.4549C39.2417 30.7137 39.0321 30.9234 38.7733 30.9234H37.6448H36.2964C35.7348 30.9234 35.4734 30.5739 35.4734 30.002V26.6814H33.716V30.4523C33.716 30.7111 33.5064 30.9208 33.2475 30.9208H22.8949H20.1773H5.83113C6.34359 30.4808 6.61017 29.8467 6.61017 29.078C6.61017 27.4319 5.34197 26.5804 3.6726 26.5804C2.68392 26.5804 1.80395 26.8599 0.939503 27.3362L0.427047 28.7234L2.01359 31.3219C0.781625 31.5549 0 32.4452 0 33.7496C0 35.5795 1.55031 36.2498 3.39308 36.2498C4.07636 36.2498 4.68457 36.1903 5.36785 36.0919V34.6865C4.76998 34.7616 4.198 34.8082 3.58719 34.8082C2.61146 34.8082 1.75736 34.6115 1.75736 33.6357C1.75736 32.7946 2.4044 32.3805 3.24556 32.3805H20.1799H22.8949H33.3847C34.2466 32.3805 34.8625 31.8965 35.1084 31.3944C35.2663 31.8913 35.7581 32.3805 36.3844 32.3805H37.6474H38.913C39.7749 32.3805 40.3909 31.8965 40.6367 31.3944C40.7946 31.8913 41.2864 32.3805 41.9127 32.3805H42.5623H43.419V32.3908ZM3.6959 30.9285H3.48884L2.02394 28.5241C2.45099 28.2446 2.90133 28.0505 3.43967 28.0505C4.25494 28.0505 4.88904 28.5138 4.88904 29.3782C4.89163 30.1624 4.39211 30.649 3.6959 30.9285Z" fill="#052976"/>
<path d="M97.4851 33.6278L96.4511 34.6618L97.4851 35.6958L98.5191 34.6618L97.4851 33.6278Z" fill="#052976"/>
<path d="M90.1586 33.6284L89.1246 34.6624L90.1586 35.6964L91.1926 34.6624L90.1586 33.6284Z" fill="#052976"/>
<path d="M108.296 30.4601C108.296 30.7189 108.086 30.9285 107.827 30.9285H107.563H107.452H106.608C106.047 30.9285 105.785 30.5791 105.785 30.0071V23.4798H104.028V30.4601C104.028 30.7189 103.818 30.9285 103.559 30.9285H102.664H102.431H101.82C101.259 30.9285 100.997 30.5791 100.997 30.0071V28.7131C100.997 26.7849 99.5943 25.7729 97.6791 25.7729C96.8017 25.7729 95.2307 25.923 94.3766 26.0576V27.4656C95.1453 27.3439 96.6179 27.2223 97.3996 27.2326C98.4607 27.2326 99.2423 27.7089 99.2423 28.7571V30.4575C99.2423 30.7163 99.0327 30.9259 98.7739 30.9259H94.2575H92.7926H92.6555C92.0938 30.9259 91.8324 30.5765 91.8324 30.0046V26.6839H90.0751V30.4549C90.0751 30.7137 89.8654 30.9234 89.6066 30.9234H88.7318H88.4782H87.1349C86.5733 30.9234 86.3119 30.574 86.3119 30.002V26.6814H84.5545V30.4523C84.5545 30.7111 84.3449 30.9208 84.0861 30.9208H75.4261H65.7851C65.2235 30.9208 64.9621 30.5714 64.9621 29.9994V23.4798H63.2048V31.9949C63.2048 33.0301 62.4956 33.6409 61.4707 33.6409C60.3371 33.6409 59.7263 32.7998 59.7263 31.5186C59.7263 31.0916 59.8401 30.3591 59.9126 29.7871H58.1552C58.0698 30.4083 57.9585 31.2029 57.9585 31.824C57.9585 33.8972 59.4467 35.0437 61.5095 35.0437C63.3626 35.0437 64.8327 34.0783 64.9388 32.3235C64.9492 32.1372 64.9466 31.7412 64.944 31.4255C65.107 31.9172 65.5962 32.3934 66.2148 32.3934H75.9877H84.2258C85.0877 32.3934 85.7037 31.9094 85.9495 31.4073C86.1074 31.9043 86.5992 32.3934 87.2255 32.3934H88.4833H88.737H89.7464C90.6082 32.3934 91.2242 31.9094 91.4701 31.4073C91.628 31.9043 92.1197 32.3934 92.746 32.3934H92.7926H94.2575H98.9111C99.7729 32.3934 100.389 31.9094 100.635 31.4073C100.793 31.9043 101.284 32.3934 101.911 32.3934H102.436H102.669H103.702C104.564 32.3934 105.18 31.9094 105.425 31.4073C105.583 31.9043 106.075 32.3934 106.701 32.3934H107.46H107.571H107.985C109.132 32.3934 110.061 31.4643 110.061 30.3177V23.4798H108.303V30.4601H108.296Z" fill="#052976"/>
<path d="M84.5195 34.6037L83.5671 33.6513L82.5551 34.6607L83.5671 35.67L84.5195 34.7176L85.4719 35.67L86.4813 34.6607L85.4719 33.6513L84.5195 34.6037Z" fill="#052976"/>
<path d="M2.71862 10.9505L3.67106 11.903L4.68044 10.8936L3.67106 9.88419L2.71862 10.8366L1.76617 9.88419L0.7542 10.8936L1.76617 11.903L2.71862 10.9505Z" fill="#052976"/>
<path d="M59.0794 9.85312H57.322V18.7642H59.0794V9.85312Z" fill="#052976"/>
<path d="M53.8932 16.8334C53.8932 17.0922 53.6836 17.3045 53.4222 17.3045H51.7761C51.2119 17.3045 50.9531 16.955 50.9531 16.3831H50.9505C50.979 16.2304 50.9945 16.0802 50.9945 15.9353C50.9945 14.2375 49.7884 13.0935 48.0492 13.0935C46.3073 13.0935 45.1038 14.2375 45.1038 15.9353C45.1038 16.6367 45.2928 17.1207 45.3756 17.3045H43.8253C43.2636 17.3045 43.0022 16.955 43.0022 16.3831V9.85313H41.2449V16.8334C41.2449 17.0922 41.0352 17.3045 40.7764 17.3045H39.1381C38.5765 17.3045 38.3151 16.955 38.3151 16.3831V16.1631C38.3151 14.5972 37.0443 13.329 35.481 13.329H28.4671L32.0517 10.9686L31.2365 9.80396L25.9695 13.5076L26.4639 14.7913H35.3749C36.0297 14.7913 36.5603 15.3219 36.5603 15.9767V16.836C36.5603 17.0974 36.3507 17.307 36.0893 17.307H24.2225C23.6609 17.307 23.3995 16.9576 23.3995 16.3857V13.0625H21.6421V16.8334C21.6421 17.0922 21.4325 17.3045 21.1711 17.3045H6.79643C6.38232 17.3045 6.12609 17.012 6.12609 16.5849V12.1721H4.36873V12.8192C4.02709 12.7829 3.70875 12.7441 3.39299 12.7441C1.58387 12.7441 0.147438 13.7043 0.147438 15.4047V16.3261C0.147438 17.8273 1.08694 18.8392 2.66054 18.8392C3.39299 18.8392 4.09956 18.6218 4.79578 18.2543C5.10118 18.583 5.54117 18.7668 6.07692 18.7668H21.3083C22.1701 18.7668 22.7861 18.2828 23.032 17.7807C23.1899 18.2776 23.6816 18.7668 24.3079 18.7668H36.2264C37.0883 18.7668 37.7043 18.2828 37.9501 17.7807C38.108 18.2776 38.5998 18.7668 39.2261 18.7668H40.9136C41.7755 18.7668 42.3914 18.2828 42.6373 17.7807C42.7952 18.2776 43.2869 18.7668 43.9133 18.7668H48.3882C49.188 18.7668 49.8505 18.3501 50.306 17.7807C50.4639 18.2776 50.9557 18.7668 51.582 18.7668H53.5749C54.7214 18.7668 55.6506 17.8376 55.6506 16.6911V9.85313H53.8932V16.8334ZM4.36873 17.0586C3.96498 17.2423 3.57158 17.3769 3.16782 17.3769C2.40949 17.3769 1.90221 16.8903 1.90221 16.2537V15.4979C1.90221 14.6076 2.58031 14.2038 3.47064 14.2038C3.76569 14.2038 4.05039 14.2427 4.36614 14.2892V17.0586H4.36873ZM49.2397 16.1242C49.2397 16.7739 48.7117 17.3045 48.0595 17.3045H47.0372C47.0372 17.3045 46.8586 16.7609 46.8586 16.1061C46.8586 15.1925 47.1951 14.5662 48.0388 14.5558H48.0543C48.8981 14.5636 49.2371 15.1925 49.2371 16.1061V16.1242H49.2397Z" fill="#052976"/>
<path d="M21.6065 21.0909L22.5615 22.0434L23.5709 21.034L22.5615 20.0246L21.6065 20.977L20.654 20.0246L19.6446 21.034L20.654 22.0434L21.6065 21.0909Z" fill="#052976"/>
<path d="M3.02902 44.9771L2.12316 43.6028C1.97822 43.3854 1.78411 43.2534 1.52788 43.2534H1.07754V44.9771H0.148392V40.3909H2.04551C2.99278 40.3909 3.75111 40.836 3.75111 41.7652C3.75111 42.4614 3.32924 42.9169 2.6822 43.0981C2.93843 43.2793 3.13772 43.4967 3.31371 43.7581L4.10828 44.9797H3.02902V44.9771ZM1.96011 42.5649C2.43892 42.5649 2.83749 42.332 2.81938 41.8454C2.80126 41.377 2.4208 41.157 1.96011 41.157H1.07754V42.5649H1.96011Z" fill="#052976"/>
<path d="M7.73158 43.3233C7.73158 44.3689 7.01207 45.0418 5.96645 45.034C4.92083 45.034 4.21426 44.3611 4.21426 43.3233C4.21426 42.2828 4.93377 41.628 5.97421 41.6228C7.01207 41.6228 7.73158 42.2854 7.73158 43.3233ZM6.79725 43.3233C6.79725 42.7927 6.50479 42.3889 5.96645 42.3889C5.43588 42.3889 5.14341 42.7979 5.14341 43.3362C5.14341 43.8668 5.4307 44.2705 5.96645 44.2705C6.5022 44.2705 6.79725 43.8616 6.79725 43.3233Z" fill="#052976"/>
<path d="M8.94613 41.7238L9.83387 43.9315L10.6 41.7238H11.4825L9.7407 46.3514H8.91766L9.42494 44.9668L7.91863 41.7238H8.94613Z" fill="#052976"/>
<path d="M15.0594 41.7108V44.9771H14.182V44.475C13.949 44.8192 13.5867 45.0366 13.0768 45.0366C12.1296 45.0366 11.674 44.2783 11.674 43.3258C11.674 42.3734 12.1244 41.6151 13.0768 41.6151C13.5841 41.6151 13.9464 41.8325 14.182 42.1819V41.7134H15.0594V41.7108ZM14.1302 43.331V43.3129C14.125 42.7978 13.8843 42.3786 13.3719 42.3786C12.8517 42.3786 12.6135 42.8004 12.6135 43.3181C12.6135 43.8435 12.8542 44.2705 13.3796 44.2705C13.8973 44.2705 14.1302 43.8512 14.1302 43.331Z" fill="#052976"/>
<path d="M16.6815 40.3158V44.9797H15.7938V40.3158H16.6815Z" fill="#052976"/>
<path d="M22.2149 40.585V41.2734L22.1451 41.333C21.7724 41.1803 21.41 41.0767 21.0244 41.0767C20.059 41.0767 19.4999 41.7264 19.4999 42.6711C19.4999 43.6416 20.0952 44.2887 21.071 44.2887C21.4618 44.2887 21.8293 44.1825 22.1813 43.991L22.2563 44.0505V44.7752C21.8422 44.9435 21.4333 45.0392 20.983 45.0392C19.5155 45.0392 18.5242 44.1152 18.5242 42.6426C18.5242 41.2579 19.3938 40.3158 20.7863 40.3158C21.2858 40.3158 21.7542 40.3961 22.2149 40.585Z" fill="#052976"/>
<path d="M26.1499 43.3233C26.1499 44.3689 25.4304 45.0418 24.3848 45.034C23.3392 45.034 22.6326 44.3611 22.6326 43.3233C22.6326 42.2828 23.3521 41.628 24.3926 41.6228C25.4304 41.6228 26.1499 42.2854 26.1499 43.3233ZM25.213 43.3233C25.213 42.7927 24.9205 42.3889 24.3822 42.3889C23.8516 42.3889 23.5592 42.7979 23.5592 43.3362C23.5592 43.8668 23.8465 44.2705 24.3822 44.2705C24.918 44.2705 25.213 43.8616 25.213 43.3233Z" fill="#052976"/>
<path d="M31.955 43.0489V44.9771H31.0725V43.2767C31.0725 42.7979 30.9431 42.3889 30.4461 42.3889C29.8923 42.3889 29.7862 42.9195 29.768 43.5096V44.9771H28.8855V43.2767C28.8855 42.7979 28.7561 42.3889 28.2592 42.3889C27.7053 42.3889 27.5992 42.9195 27.5811 43.5096V44.9771H26.6985V41.7108H27.5345V42.2362C27.7441 41.8635 28.0961 41.6228 28.5982 41.6228C29.1521 41.6228 29.4989 41.9153 29.6568 42.3527C29.8612 41.9153 30.2287 41.6228 30.7852 41.6228C31.6056 41.6228 31.955 42.2543 31.955 43.0489Z" fill="#052976"/>
<path d="M37.8809 43.0489V44.9771H36.9983V43.2767C36.9983 42.7979 36.8689 42.3889 36.372 42.3889C35.8181 42.3889 35.712 42.9195 35.6939 43.5096V44.9771H34.8113V43.2767C34.8113 42.7979 34.6819 42.3889 34.185 42.3889C33.6311 42.3889 33.525 42.9195 33.5069 43.5096V44.9771H32.6243V41.7108H33.4603V42.2362C33.67 41.8635 34.022 41.6228 34.5241 41.6228C35.0779 41.6228 35.4247 41.9153 35.5826 42.3527C35.7871 41.9153 36.1546 41.6228 36.7111 41.6228C37.5289 41.6228 37.8809 42.2543 37.8809 43.0489Z" fill="#052976"/>
<path d="M42.6948 41.7755V42.5054L42.6482 42.5416C42.2625 42.4588 41.895 42.3967 41.556 42.3967C41.2298 42.3967 40.9477 42.4562 40.9477 42.6374C40.9477 42.86 41.3515 42.9014 41.719 42.9816C42.3738 43.1214 42.9354 43.3621 42.9354 44.0091C42.9354 44.739 42.2108 45.0366 41.3463 45.0366C40.9089 45.0366 40.4922 44.99 40.0833 44.8425V44.1178L40.1299 44.0816C40.5103 44.198 40.883 44.2679 41.292 44.2679C41.6181 44.2679 41.9701 44.198 41.9701 43.9806C41.9701 43.7477 41.5482 43.683 41.1936 43.6079C40.5388 43.4552 40.0005 43.2404 40.0005 42.6141C40.0005 41.9075 40.7019 41.6254 41.5378 41.6254C41.939 41.6306 42.3091 41.6953 42.6948 41.7755Z" fill="#052976"/>
<path d="M46.0135 41.7755V42.5054L45.9669 42.5416C45.5813 42.4588 45.2138 42.3967 44.8747 42.3967C44.5486 42.3967 44.2665 42.4562 44.2665 42.6374C44.2665 42.86 44.6703 42.9014 45.0378 42.9816C45.6926 43.1214 46.2542 43.3621 46.2542 44.0091C46.2542 44.739 45.5295 45.0366 44.6651 45.0366C44.2277 45.0366 43.811 44.99 43.4021 44.8425V44.1178L43.4486 44.0816C43.8291 44.198 44.2018 44.2679 44.6107 44.2679C44.9368 44.2679 45.2888 44.198 45.2888 43.9806C45.2888 43.7477 44.867 43.683 44.5124 43.6079C43.8576 43.4552 43.3192 43.2404 43.3192 42.6141C43.3192 41.9075 44.0206 41.6254 44.8566 41.6254C45.2604 41.6306 45.6279 41.6953 46.0135 41.7755Z" fill="#052976"/>
<path d="M51.7573 43.3233C51.7573 44.3689 51.0378 45.0418 49.9921 45.034C48.9465 45.034 48.24 44.3611 48.24 43.3233C48.24 42.2828 48.9595 41.628 49.9999 41.6228C51.0378 41.6228 51.7573 42.2854 51.7573 43.3233ZM50.8229 43.3233C50.8229 42.7927 50.5305 42.3889 49.9921 42.3889C49.4616 42.3889 49.1691 42.7979 49.1691 43.3362C49.1691 43.8668 49.4564 44.2705 49.9921 44.2705C50.5305 44.2705 50.8229 43.8616 50.8229 43.3233Z" fill="#052976"/>
<path d="M53.1404 41.7108V42.2414C53.35 41.8687 53.702 41.6228 54.2093 41.6228C55.0272 41.6228 55.3792 42.2543 55.3792 43.0489V44.9771H54.4966V43.2767C54.4966 42.7979 54.3672 42.3889 53.8884 42.3889C53.2802 42.3889 53.1922 43.0437 53.1922 43.7089L53.187 43.7037V44.9771H52.3044V41.7108H53.1404Z" fill="#052976"/>
<path d="M56.9926 41.7471H57.4663V41.2501C57.4663 40.5488 58.0046 40.1631 58.706 40.1631C59.0088 40.1631 59.2909 40.2149 59.5601 40.3572L59.5549 41.0224L59.5265 41.0638C59.322 40.9887 59.1227 40.9292 58.9001 40.9292C58.574 40.9292 58.3566 41.1285 58.3566 41.4598V41.7471H59.3686V42.5132H58.3566V44.9797H57.4689V42.5132H56.9952V41.7471H56.9926Z" fill="#052976"/>
<path d="M63.093 43.3233C63.093 44.3689 62.3734 45.0418 61.3278 45.034C60.2822 45.034 59.5756 44.3611 59.5756 43.3233C59.5756 42.2828 60.2951 41.628 61.3356 41.6228C62.3734 41.6228 63.093 42.2854 63.093 43.3233ZM62.156 43.3233C62.156 42.7927 61.8636 42.3889 61.3252 42.3889C60.7947 42.3889 60.5022 42.7979 60.5022 43.3362C60.5022 43.8668 60.7895 44.2705 61.3252 44.2705C61.861 44.2705 62.156 43.8616 62.156 43.3233Z" fill="#052976"/>
<path d="M64.4643 41.7108V42.2595C64.7516 41.7911 65.189 41.5866 65.7429 41.6228V42.3941C65.6497 42.376 65.5617 42.3708 65.4737 42.3708C64.9302 42.3708 64.5212 42.6503 64.5212 43.2352V44.9771H63.6387V41.7108H64.4643Z" fill="#052976"/>
<path d="M69.5108 40.3909V43.6338C69.5108 44.5035 68.9155 45.0366 68.0277 45.0366C67.7249 45.0366 67.4325 44.9771 67.1219 44.8969V44.2317L67.1969 44.1722C67.3962 44.2317 67.5878 44.2783 67.7819 44.2783C68.2607 44.2731 68.548 43.9574 68.548 43.4941V40.3909H69.5108Z" fill="#052976"/>
<path d="M72.4697 44.9771V44.475C72.2705 44.8244 71.9081 45.0366 71.3957 45.0366C70.5545 45.0366 70.099 44.4827 70.099 43.6287V41.7134H70.9867V43.419C70.9867 43.8926 71.1783 44.2731 71.6648 44.2731C72.2135 44.2731 72.418 43.7891 72.418 43.2275L72.4232 43.2327V41.7134H73.3057V44.9797H72.4697V44.9771Z" fill="#052976"/>
<path d="M77.3817 43.331C77.3817 44.2783 76.9262 45.0418 75.9737 45.0418C75.4664 45.0418 75.1041 44.8244 74.8763 44.475V44.9719L74.6201 44.9771H74.0429V40.3132H74.9307V42.112C75.1636 41.8014 75.5079 41.6151 75.9815 41.6151C76.9262 41.6177 77.3817 42.3838 77.3817 43.331ZM76.4474 43.331C76.4474 42.8108 76.2067 42.3838 75.689 42.3838C75.1688 42.3838 74.9307 42.8108 74.9307 43.331C74.9307 43.8513 75.1636 44.2783 75.6838 44.2783C76.2092 44.2757 76.4474 43.8513 76.4474 43.331Z" fill="#052976"/>
<path d="M81.1397 41.7108V44.9771H80.2623V44.475C80.0294 44.8192 79.6671 45.0366 79.1572 45.0366C78.2099 45.0366 77.7544 44.2783 77.7544 43.3258C77.7544 42.3734 78.2047 41.6151 79.1572 41.6151C79.6645 41.6151 80.0268 41.8325 80.2623 42.1819V41.7134H81.1397V41.7108ZM80.2106 43.331V43.3129C80.2054 42.7978 79.9647 42.3786 79.4522 42.3786C78.932 42.3786 78.6939 42.8004 78.6939 43.3181C78.6939 43.8435 78.9346 44.2705 79.46 44.2705C79.9776 44.2705 80.2106 43.8512 80.2106 43.331Z" fill="#052976"/>
<path d="M82.7626 41.7108V44.9771H81.8749V41.7108H82.7626ZM82.8765 40.6833L82.32 41.2398L81.7636 40.6833L82.32 40.1269L82.8765 40.6833Z" fill="#052976"/>
<path d="M84.3823 40.3158V44.9797H83.4945V40.3158H84.3823Z" fill="#052976"/>
<path d="M90.383 44.9771H89.296L88.9518 44.6561C88.548 44.9201 88.0925 45.0703 87.6499 45.0703C86.8036 45.0703 86.242 44.5785 86.242 43.9263C86.242 43.3828 86.5862 43.08 86.9951 42.8574C86.726 42.583 86.5448 42.2543 86.5448 41.8816C86.5448 41.2786 87.0754 40.7765 87.8363 40.7765C88.5662 40.7765 89.0993 41.2217 89.0993 41.8402C89.0993 42.4355 88.6671 42.728 88.2116 42.9557L88.9828 43.6752C89.1588 43.4242 89.2624 43.1084 89.2624 42.7461H90.075C90.075 43.2844 89.8525 43.7736 89.5134 44.167L90.383 44.9771ZM88.4135 44.1592L87.4843 43.3051C87.2565 43.4397 87.0987 43.5976 87.0987 43.8305C87.0987 44.0997 87.3497 44.3274 87.725 44.3274C87.9579 44.33 88.1986 44.2705 88.4135 44.1592ZM87.7379 42.5131C88.0822 42.3553 88.3462 42.187 88.3462 41.9049C88.3462 41.6539 88.1236 41.4675 87.8544 41.4675C87.5154 41.4675 87.3523 41.6901 87.3523 41.9127C87.3523 42.1042 87.4972 42.2724 87.7379 42.5131Z" fill="#052976"/>
<path d="M95.7699 40.3909L94.3024 43.0308V44.9771H93.337V43.0308L91.7298 40.3909H92.8505L93.8728 42.2207L94.8356 40.3909H95.7699Z" fill="#052976"/>
<path d="M98.5558 41.7108V44.9771H97.6784V44.475C97.4455 44.8192 97.0831 45.0366 96.5733 45.0366C95.626 45.0366 95.1705 44.2783 95.1705 43.3258C95.1705 42.3734 95.6208 41.6151 96.5733 41.6151C97.0805 41.6151 97.4429 41.8325 97.6784 42.1819V41.7134H98.5558V41.7108ZM97.6266 43.331V43.3129C97.6215 42.7978 97.3808 42.3786 96.8683 42.3786C96.3481 42.3786 96.11 42.8004 96.11 43.3181C96.11 43.8435 96.3507 44.2705 96.8761 44.2705C97.3937 44.2705 97.6266 43.8512 97.6266 43.331Z" fill="#052976"/>
<path d="M100.129 41.7108V42.2414C100.339 41.8687 100.691 41.6228 101.198 41.6228C102.016 41.6228 102.368 42.2543 102.368 43.0489V44.9771H101.485V43.2767C101.485 42.7979 101.356 42.3889 100.877 42.3889C100.269 42.3889 100.181 43.0437 100.181 43.7089L100.176 43.7037V44.9771H99.293V41.7108H100.129Z" fill="#052976"/>
<path d="M106.37 43.331C106.37 44.2783 105.914 45.0418 104.962 45.0418C104.455 45.0418 104.092 44.8244 103.865 44.475V44.9719L103.608 44.9771H103.029V40.3132H103.916V42.112C104.149 41.8014 104.496 41.6151 104.967 41.6151C105.914 41.6177 106.37 42.3838 106.37 43.331ZM105.433 43.331C105.433 42.8108 105.192 42.3838 104.675 42.3838C104.157 42.3838 103.916 42.8108 103.916 43.331C103.916 43.8513 104.149 44.2783 104.669 44.2783C105.195 44.2757 105.433 43.8513 105.433 43.331Z" fill="#052976"/>
<path d="M109.219 44.9771V44.475C109.019 44.8244 108.657 45.0366 108.144 45.0366C107.303 45.0366 106.848 44.4827 106.848 43.6287V41.7134H107.736V43.419C107.736 43.8926 107.927 44.2731 108.414 44.2731C108.962 44.2731 109.167 43.7891 109.167 43.2275L109.172 43.2327V41.7134H110.055V44.9797H109.219V44.9771Z" fill="#052976"/>
<path d="M47.681 41.7108H46.7933V44.9771H47.681V41.7108Z" fill="#052976"/>
<path d="M47.2395 40.1251L46.6813 40.6833L47.2395 41.2414L47.7977 40.6833L47.2395 40.1251Z" fill="#052976"/>
<path d="M39.4281 41.7108H38.5404V44.9771H39.4281V41.7108Z" fill="#052976"/>
<path d="M38.9852 40.1253L38.427 40.6835L38.9852 41.2417L39.5433 40.6835L38.9852 40.1253Z" fill="#052976"/>
<defs>
<linearGradient id="paint0_linear_6376_2117" x1="148.173" y1="37.0048" x2="148.173" y2="19.049" gradientUnits="userSpaceOnUse">
<stop offset="0.13" stop-color="#BC9470"/>
<stop offset="0.1458" stop-color="#BE9774"/>
<stop offset="0.3437" stop-color="#D5BAA1"/>
<stop offset="0.5336" stop-color="#E7D5C5"/>
<stop offset="0.7112" stop-color="#F4E9DE"/>
<stop offset="0.8717" stop-color="#FCF5EE"/>
<stop offset="1" stop-color="#FFF9F3"/>
</linearGradient>
</defs>
</svg>
