<svg width="31" height="35" viewBox="0 0 31 35" fill="none" xmlns="http://www.w3.org/2000/svg">
<path d="M12.5312 6.21875C12.5312 5.43139 12.844 4.67628 13.4008 4.11953C13.9575 3.56278 14.7126 3.25 15.5 3.25C16.2874 3.25 17.0425 3.56278 17.5992 4.11953C18.156 4.67628 18.4687 5.43139 18.4687 6.21875C18.4687 7.00611 18.156 7.76122 17.5992 8.31797C17.0425 8.87472 16.2874 9.1875 15.5 9.1875C14.7126 9.1875 13.9575 8.87472 13.4008 8.31797C12.844 7.76122 12.5312 7.00611 12.5312 6.21875ZM15.5 0.875C14.671 0.874822 13.8534 1.0675 13.1118 1.4378C12.3701 1.8081 11.7248 2.34587 11.2268 3.00858C10.7288 3.67129 10.3918 4.44077 10.2425 5.25616C10.0932 6.07156 10.1356 6.91051 10.3664 7.70669L4.90037 5.8245C3.99158 5.53321 3.00484 5.60952 2.15164 6.03708C1.29844 6.46463 0.646685 7.20941 0.33606 8.11177C0.025435 9.01414 0.080663 10.0023 0.489907 10.8644C0.89915 11.7265 1.62984 12.3941 2.52537 12.7239L9.5625 15.1488V19.6114C9.56269 19.792 9.52167 19.9703 9.44256 20.1327L5.17706 28.8762C4.75901 29.7453 4.702 30.7446 5.01847 31.6556C5.33495 32.5666 5.99918 33.3153 6.86599 33.738C7.73281 34.1607 8.73173 34.2232 9.64443 33.9116C10.5571 33.6001 11.3094 32.9399 11.7368 32.0754L15.4976 24.3638L19.2584 32.0754C19.4631 32.5148 19.7532 32.909 20.1119 33.235C20.4706 33.5611 20.8907 33.8124 21.3476 33.9743C21.8045 34.1362 22.289 34.2054 22.773 34.178C23.2569 34.1505 23.7306 34.027 24.1662 33.8144C24.6019 33.6019 24.9908 33.3048 25.3104 32.9403C25.6299 32.5758 25.8737 32.1513 26.0273 31.6916C26.181 31.2319 26.2416 30.7461 26.2055 30.2627C26.1693 29.7794 26.0373 29.308 25.817 28.8762L21.5574 20.1422C21.4785 19.9802 21.4375 19.8023 21.4375 19.6221V15.1488L28.4758 12.7251C29.3713 12.3952 30.102 11.7277 30.5113 10.8656C30.9205 10.0035 30.9757 9.01533 30.6651 8.11296C30.3545 7.2106 29.7027 6.46582 28.8495 6.03826C27.9963 5.61071 27.0096 5.5344 26.1008 5.82569L20.6336 7.70669C20.8644 6.91051 20.9068 6.07156 20.7575 5.25616C20.6082 4.44077 20.2712 3.67129 19.7732 3.00858C19.2752 2.34587 18.6299 1.8081 17.8882 1.4378C17.1466 1.0675 16.329 0.874822 15.5 0.875ZM2.50875 8.85975C2.73675 8.19475 3.46231 7.84206 4.12731 8.07006L13.1808 11.1884C14.6837 11.7058 16.3163 11.7058 17.8192 11.1884L26.8727 8.07006C27.1922 7.95999 27.5423 7.98135 27.8461 8.12944C28.1499 8.27754 28.3824 8.54024 28.4924 8.85975C28.6025 9.17926 28.5811 9.52941 28.4331 9.83317C28.285 10.1369 28.0223 10.3694 27.7027 10.4795L20.2642 13.0409C19.9136 13.1616 19.6093 13.3887 19.3939 13.6905C19.1784 13.9924 19.0626 14.354 19.0625 14.7248V19.6221C19.0627 20.1632 19.1861 20.6973 19.4235 21.1836L23.6831 29.9177C23.7626 30.0687 23.8111 30.2342 23.8255 30.4042C23.8399 30.5743 23.82 30.7456 23.7669 30.9078C23.7138 31.07 23.6287 31.22 23.5166 31.3487C23.4045 31.4774 23.2677 31.5823 23.1142 31.6571C22.9608 31.7319 22.7939 31.7751 22.6234 31.7841C22.453 31.7932 22.2825 31.7679 22.122 31.7098C21.9615 31.6517 21.8143 31.5619 21.6892 31.4458C21.564 31.3297 21.4635 31.1896 21.3936 31.0339L17.6316 23.3235C16.7647 21.5446 14.2306 21.5446 13.3625 23.3235L9.60168 31.0339C9.53173 31.1896 9.4312 31.3297 9.30608 31.4458C9.18095 31.5619 9.03377 31.6517 8.87327 31.7098C8.71278 31.7679 8.54224 31.7932 8.37179 31.7841C8.20134 31.7751 8.03445 31.7319 7.88102 31.6571C7.72759 31.5823 7.59075 31.4774 7.47864 31.3487C7.36652 31.22 7.2814 31.07 7.22835 30.9078C7.17529 30.7456 7.15537 30.5743 7.16977 30.4042C7.18417 30.2342 7.2326 30.0687 7.31218 29.9177L11.5765 21.1729C11.8139 20.6866 11.9373 20.1526 11.9375 19.6114V14.7248C11.9374 14.354 11.8216 13.9924 11.6061 13.6905C11.3907 13.3887 11.0864 13.1616 10.7357 13.0409L3.29725 10.4795C3.13904 10.425 2.99311 10.3399 2.86781 10.229C2.7425 10.1181 2.64026 9.98359 2.56693 9.83318C2.4936 9.68277 2.45062 9.51939 2.44043 9.35237C2.43024 9.18535 2.45424 9.01796 2.50875 8.85975Z" fill="#074E31"/>
</svg>
